# xmcd
#
# Track frame offsets: 
#        150
#        17968
#        36339
#        48251
#        60847
#        72879
#        87181
#        98340
#        113675
#        125131
#        136996
#        151305
#        167057
#        183412
#        195512
#        211987
#        234150
#
# Disc length: 4187 seconds
#
# Revision: 3
# Processed by: cddbd v1.5.2PL0 Copyright (c) Steve Scherf et al.
# Submitted via: ExactAudioCopyFreeDBPlugin 1.0
#
DISCID=d8105911
DTITLE=Bert Jansch - L. A. Turnaround
DYEAR=1974
DGENRE=Folk
TTITLE0=Fresh As A Sweet Sunday Morning
TTITLE1=Chambertin
TTITLE2=One For Jo
TTITLE3=Travelling Man
TTITLE4=Open Up The Watergate (Let The Sunshine In)
TTITLE5=Stone Monkey
TTITLE6=Of Love And Lullaby
TTITLE7=Needle Of Death
TTITLE8=Lady Nothing
TTITLE9=There Comes A Time
TTITLE10=Cluck Old Hen
TTITLE11=The Blacksmith
TTITLE12=Open Up The Watergate - alternate
TTITLE13=One For Jo - alternate
TTITLE14=The Blacksmith - alternate
TTITLE15=In The Bleak Midwinter - bonus
TTITLE16=L.A. Turnaround ...The Movie
EXTD=
EXTT0=
EXTT1=
EXTT2=
EXTT3=
EXTT4=
EXTT5=
EXTT6=
EXTT7=
EXTT8=
EXTT9=
EXTT10=
EXTT11=
EXTT12=
EXTT13=
EXTT14=
EXTT15=
EXTT16=
PLAYORDER=
